<?xml version="1.0" encoding="UTF-8"?>
<svg xmlns="http://www.w3.org/2000/svg" xmlns:xlink="http://www.w3.org/1999/xlink" width="200" height="200" viewBox="0 0 200 200">
  <defs>
    <clipPath id="clip-path">
      <rect width="100%" height="100%" fill="none"/>
    </clipPath>
  </defs>
  <g clip-path="url(#clip-path)">
    <path d="M100,30 c0,0 -10,5 -10,10 s5,10 10,10 s10,-5 10,-10 s-10,-10 -10,-10" fill="none" stroke="#FFD700" stroke-width="6" stroke-linecap="round"/>
    <path d="M70,40 c0,0 -10,5 -10,10 s5,10 10,10 s10,-5 10,-10 s-10,-10 -10,-10" fill="none" stroke="#FFD700" stroke-width="6" stroke-linecap="round"/>
    <path d="M130,40 c0,0 -10,5 -10,10 s5,10 10,10 s10,-5 10,-10 s-10,-10 -10,-10" fill="none" stroke="#FFD700" stroke-width="6" stroke-linecap="round"/>
    
    <circle cx="100" cy="100" r="50" fill="none" stroke="#FFD700" stroke-width="8"/>
    <path d="M50,100 h100 M75,75 L125,125 M125,75 L75,125" stroke="#FFD700" stroke-width="6"/>
    
    <rect x="35" y="150" width="130" height="20" rx="10" fill="#FFD700"/>
    
    <path d="M100 70 L150 120 L100 170 L50 120 Z" fill="none" stroke="#FFD700" stroke-width="6" stroke-linejoin="round"/>
  </g>
</svg>