<?xml version="1.0" encoding="UTF-8"?>
<svg xmlns="http://www.w3.org/2000/svg" xmlns:xlink="http://www.w3.org/1999/xlink" width="200" height="200" viewBox="0 0 200 200">
  <g fill="#121212" stroke="#FFD700" stroke-width="4">
    <!-- Steam wisps -->
    <path d="M80,40 C85,30 95,35 90,45" fill="none" stroke="#FFD700" stroke-width="4"/>
    <path d="M100,30 C105,20 115,25 110,35" fill="none" stroke="#FFD700" stroke-width="4"/>
    <path d="M120,40 C125,30 135,35 130,45" fill="none" stroke="#FFD700" stroke-width="4"/>
    
    <!-- Cloche/Serving dish -->
    <ellipse cx="100" cy="70" rx="55" ry="25" fill="#121212" stroke="#FFD700" stroke-width="4"/>
    <path d="M45,70 C45,90 70,105 100,105 C130,105 155,90 155,70" fill="#121212" stroke="#FFD700" stroke-width="4"/>
    
    <!-- Platter/Tray -->
    <rect x="35" y="120" width="130" height="10" rx="5" fill="#121212" stroke="#FFD700" stroke-width="4"/>
    
    <!-- Hand -->
    <path d="M70,135 C60,140 50,160 65,170 C80,180 90,165 100,155 C110,145 115,145 125,155 C135,165 130,135 115,130 C100,125 90,130 80,140 C70,150 70,135 70,135 Z" fill="#121212" stroke="#FFD700" stroke-width="4"/>
    
    <!-- Cuff -->
    <rect x="60" y="180" width="25" height="10" rx="2" fill="#FFD700" stroke="#FFD700" stroke-width="0"/>
  </g>
</svg>